<svg width="800" height="600" viewBox="0 0 800 600" fill="none" xmlns="http://www.w3.org/2000/svg">
  <rect width="800" height="600" rx="48" fill="url(#bg)"/>
  <circle cx="150" cy="128" r="76" fill="#FFF0CC" fill-opacity="0.72"/>
  <ellipse cx="400" cy="420" rx="180" ry="42" fill="#102542" fill-opacity="0.08"/>
  <path d="M346 154C332 194 326 238 328 280C330 324 346 362 372 392L420 376C396 344 386 312 384 278C382 244 388 202 402 164L346 154Z" fill="#7A4B2B"/>
  <path d="M368 136C344 214 346 324 420 382C490 440 604 420 650 336C608 350 558 344 518 316C454 270 430 204 424 144L368 136Z" fill="#FFDA45"/>
  <path d="M396 132C384 202 398 282 448 334C492 380 556 394 614 376C572 374 528 356 492 324C446 284 420 224 414 140L396 132Z" fill="#FFF3A6"/>
  <path d="M478 220C452 260 458 320 500 352" stroke="#7A4B2B" stroke-width="18" stroke-linecap="round"/>
  <path d="M498 214C534 254 582 280 634 284" stroke="#E04A61" stroke-width="16" stroke-linecap="round"/>
  <circle cx="514" cy="208" r="14" fill="#39C6DD"/>
  <circle cx="552" cy="234" r="12" fill="#FF4D8D"/>
  <circle cx="590" cy="258" r="10" fill="#7CE9C6"/>
  <circle cx="548" cy="294" r="10" fill="#FFB703"/>
  <circle cx="522" cy="330" r="10" fill="#39C6DD"/>
  <circle cx="474" cy="354" r="10" fill="#FF4D8D"/>
  <defs>
    <linearGradient id="bg" x1="88" y1="82" x2="712" y2="554" gradientUnits="userSpaceOnUse">
      <stop stop-color="#FFF8E6"/>
      <stop offset="1" stop-color="#FFD4E0"/>
    </linearGradient>
  </defs>
</svg>
